<?xml version="1.0" encoding="utf-8"?>
<!-- Generator: Adobe Illustrator 26.0.0, SVG Export Plug-In . SVG Version: 6.00 Build 0)  -->
<svg version="1.1" id="Capa_3" xmlns="http://www.w3.org/2000/svg" xmlns:xlink="http://www.w3.org/1999/xlink" x="0px" y="0px"
	 viewBox="0 0 1665.6 1661.2" style="enable-background:new 0 0 1665.6 1661.2;" xml:space="preserve">
<style type="text/css">
	.st0{fill:#444B60;}
	.st1{fill:#323648;}
	.st2{fill:#232634;}
	.st3{fill:#9BA4B6;}
	.st4{fill:#7E8B9A;}
	.st5{fill:#5B637C;}
</style>
<path class="st0" d="M1502.1,1065.6c-29.6-12.7-65.5-28.4-104.6-45.7c-28,92.4-78.5,179.4-151.5,252.4
	c-21.7,21.7-44.8,41.4-68.8,59.1c68.2-34.6,164.7-73.2,273.5-85.9C1507,1160.2,1531.5,1078.1,1502.1,1065.6z"/>
<path class="st1" d="M246.5,635.3c94.4,38.8,216.9,88.2,314,127.2c12.7-48.1,37.8-93.7,75.6-131.4c41.1-41.1,91.4-67.2,144.2-78.6
	c-40.7-90.3-91-202.3-130.8-292.8c-95.9,27.4-186.3,78.8-261.8,154.3C322.9,478.7,275.9,554.5,246.5,635.3z"/>
<path class="st1" d="M1047.9,631.1c37.7,37.7,62.9,83.3,75.6,131.4c82.6-33.2,183.5-73.9,269.9-109.2
	c-28.7-87.5-77.7-169.8-147.3-239.4c-63.9-63.9-138.4-110.3-217.9-139.8c-38.7,87.8-85.9,192.8-124.5,278.4
	C956.5,563.9,1006.8,590,1047.9,631.1z"/>
<path class="st1" d="M636.1,1042.9c-41.1-41.1-67.2-91.4-78.6-144.2c-97.8,44.2-221.3,99.5-315.1,140.6
	c29,85.1,77.4,165.2,145.3,233.1c73.9,73.9,162.1,124.8,255.8,152.6c38.3-93.3,86.1-211.9,124.2-306.5
	C719.4,1105.7,673.9,1080.6,636.1,1042.9z"/>
<path class="st1" d="M1397.6,1019.9c-86.3-38.1-187.9-83.7-271.1-121.3c-11.4,52.8-37.6,103.1-78.6,144.2
	c-37.7,37.7-83.3,62.9-131.4,75.6c36,89.5,80.8,200.6,118,291.4c77.1-29.6,149.5-75.3,211.7-137.4
	C1319.1,1199.3,1369.5,1112.3,1397.6,1019.9z"/>
<path class="st2" d="M1290,1071.1c-39.2-20.2-110.3-61.1-186.5-106.4c-13.8,28.2-32.2,54.7-55.6,78.1
	c-27.7,27.7-59.6,48.5-93.6,62.7c48.6,79.7,96.3,157.9,113.9,186.9c26.3,43.3,65.1,43.8,165.2-56.1
	C1325.7,1144.2,1323.6,1088.4,1290,1071.1z"/>
<path class="st2" d="M1107.3,717.3c78.3-47.8,154.4-94.1,182.8-111.4c43.3-26.3,43.8-65.1-56.1-165.2
	c-92.1-92.3-147.9-90.2-165.2-56.6c-20.2,39.3-61.5,111-107,187.5c31.2,14.1,60.5,33.9,86.1,59.5
	C1073.5,656.8,1093.2,686.1,1107.3,717.3z"/>
<path class="st2" d="M577.4,958.5c-79.8,47.4-155.4,90.7-196.3,111.6c-33.7,17.2-35.9,73,56.2,165.3
	c99.9,100.1,138.7,99.7,165.1,56.5c18-29.5,67.2-109.8,117-190.9c-30.2-14-58.5-33.3-83.3-58.1C611,1017.7,591.4,989,577.4,958.5z"
	/>
<path class="st2" d="M438.6,439.7c-100.1,99.9-99.7,138.7-56.5,165.1c29.6,18.1,110.7,67.8,192.2,117.8
	c14.2-33.2,34.7-64.4,61.8-91.5c23.2-23.2,49.3-41.4,77.2-55.1c-46.5-78.4-88.8-152.3-109.4-192.5
	C586.7,349.8,530.9,347.6,438.6,439.7z"/>
<path class="st3" d="M248.6,255.4c-319.5,319.5-319.5,837.6,0,1157.1c319.5,319.5,837.6,319.5,1157.1,0
	c319.5-319.5,319.5-837.6,0-1157.1C1086.2-64.1,568.2-64.1,248.6,255.4z M335.9,307.4c108.1-108.1,260-171.3,277.5-130.6
	c40.7,94.9,112.4,254.8,166.9,375.7c-52.8,11.4-103.1,37.6-144.2,78.6c-37.7,37.7-62.9,83.3-75.6,131.4
	c-121.4-48.9-282.7-113.8-378.8-154.1C140.9,591.3,218.6,424.7,335.9,307.4z M613.5,1497.2c-17.1,40.9-183.8-36.9-301-154.1
	c-108.1-108.1-171.3-260-130.6-277.5c94.9-40.7,254.8-112.4,375.7-166.9c11.4,52.8,37.6,103.1,78.6,144.2
	c37.7,37.7,83.3,62.9,131.4,75.6C718.7,1239.8,653.7,1401.1,613.5,1497.2z M1371.6,1343.1c-117.3,117.3-283.9,195-301,154.1
	c-40.2-96.1-105.2-257.4-154.1-378.8c48.1-12.7,93.7-37.8,131.4-75.6c41.1-41.1,67.2-91.4,78.6-144.2
	c120.8,54.5,280.7,126.2,375.7,166.9C1542.9,1083,1479.7,1234.9,1371.6,1343.1z M1502.2,608.5c-96.1,40.2-257.4,105.2-378.8,154.1
	c-12.7-48.1-37.8-93.7-75.6-131.4c-41.1-41.1-91.4-67.2-144.2-78.6c54.5-120.8,126.2-280.7,166.9-375.7
	c17.5-40.8,169.4,22.4,277.5,130.6C1465.4,424.7,1543.1,591.3,1502.2,608.5z"/>
<path class="st4" d="M916.4,1118.4c48.1-12.7,93.7-37.8,131.4-75.6c41.1-41.1,67.2-91.4,78.6-144.2
	c83.2,37.5,184.8,83.2,271.1,121.3c36.2-119.4,34.8-247.8-4.2-366.6c-86.4,35.3-187.4,76-269.9,109.2
	c-12.7-48.1-37.8-93.7-75.6-131.4c-41.1-41.1-91.4-67.2-144.2-78.6c38.6-85.5,85.8-190.6,124.5-278.4
	c-121.6-45.1-254.6-49.9-378.7-14.5c39.8,90.5,90.1,202.6,130.8,292.8c-52.8,11.4-103.1,37.6-144.2,78.6
	c-37.7,37.7-62.9,83.3-75.6,131.4c-97.1-39.1-219.6-88.5-314-127.2c-47.3,130.1-48.7,273.1-4.2,404
	c93.8-41.1,217.3-96.5,315.1-140.6c11.4,52.8,37.6,103.1,78.6,144.2c37.7,37.7,83.3,62.9,131.4,75.6
	c-38.1,94.6-85.9,213.2-124.2,306.5c127.9,38,265.8,32.9,391-15.1C997.2,1319,952.5,1207.9,916.4,1118.4z"/>
<circle class="st1" cx="833.4" cy="846.5" r="142.3"/>
<path class="st5" d="M1502.1,1065.6c-15.9-6.8-33.6-14.5-52.6-22.8l-70.6,179c36.4-11.8,69.9-19.4,100.2-24.1
	C1514.3,1131.5,1525.9,1075.7,1502.1,1065.6z"/>
</svg>
