<svg id="Capa_3" data-name="Capa 3" xmlns="http://www.w3.org/2000/svg" viewBox="0 0 2372 1898"><defs><style>.cls-1{fill:#444b60;}.cls-2{fill:#323648;}.cls-3{fill:#5b637c;}.cls-4{fill:#232634;}.cls-5{fill:#9ba4b6;}.cls-6{fill:#7e8b9a;}</style></defs><path class="cls-1" d="M1818.23,1172.05c-120.12-102.37-225.06-140.07-327.37-140.82a622.82,622.82,0,0,1-77.38,228.68,412.18,412.18,0,0,1,128,22.86c159.75,56.06,163.31,224.2,456.71,221.43l127.33-238.59S1965,1297.09,1818.23,1172.05Z"/><path class="cls-1" d="M1387,1125.61c-22.61-9.7-50-21.7-79.9-34.88a462.45,462.45,0,0,1-168.31,238c52.07-26.43,125.79-55.91,209-65.63C1390.67,1197.91,1409.34,1135.22,1387,1125.61Z"/><path class="cls-2" d="M427.73,796.89c72.09,29.64,165.69,67.36,239.89,97.22A222.22,222.22,0,0,1,835.51,733.64c-31.13-69-69.54-154.57-100-223.7a463.72,463.72,0,0,0-307.83,287Z"/><path class="cls-2" d="M1039.91,793.7a221.24,221.24,0,0,1,57.73,100.41c63.08-25.39,140.21-56.46,206.21-83.42a463.5,463.5,0,0,0-279-289.71c-29.58,67.07-65.59,147.31-95.09,212.66A221.28,221.28,0,0,1,1039.91,793.7Z"/><path class="cls-2" d="M725.35,1108.26A221.28,221.28,0,0,1,665.29,998.1c-74.75,33.74-169.06,76-240.74,107.43A464.17,464.17,0,0,0,730.9,1400.14c29.27-71.27,65.78-161.9,94.86-234.15A221.24,221.24,0,0,1,725.35,1108.26Z"/><path class="cls-2" d="M1307.06,1090.73c-65.9-29.09-143.56-64-207.09-92.63A222.22,222.22,0,0,1,939.5,1166c27.52,68.39,61.72,153.26,90.11,222.59a463.79,463.79,0,0,0,277.45-297.85Z"/><path class="cls-3" d="M1565.83,1255.29l94.28-153.82c55,19.89,134.21,75.51,171.67,116.84l-105.81,145C1701.26,1339,1624,1278.29,1565.83,1255.29Z"/><path class="cls-3" d="M1768.58,1404.73c33.21,38.41,114.69,65.91,201.54,68.34,0,0,86.15-156.39,90.3-168.85,0,0-78.71,13.59-188.76-55.2Z"/><path class="cls-4" d="M1224.87,1129.87c-29.92-15.4-84.28-46.68-142.49-81.3a221.22,221.22,0,0,1-114,107.6c37.15,60.91,73.56,120.64,87,142.78,20.09,33.09,49.73,33.46,126.23-42.86C1252.17,1185.71,1250.56,1143.09,1224.87,1129.87Z"/><path class="cls-4" d="M1085.29,859.56c59.83-36.48,117.93-71.9,139.69-85.12,33.09-20.09,33.46-49.73-42.86-126.23-70.38-70.54-113-68.93-126.22-43.24-15.46,30-47,84.76-81.76,143.26a221.77,221.77,0,0,1,111.15,111.33Z"/><path class="cls-4" d="M680.52,1043.79c-61,36.18-118.73,69.31-149.93,85.28-25.72,13.16-27.43,55.77,42.95,126.31,76.32,76.5,106,76.2,126.13,43.16C713.41,1276,751,1214.62,789,1152.67a221.62,221.62,0,0,1-108.5-108.88Z"/><path class="cls-4" d="M574.46,647.51c-76.5,76.32-76.2,106-43.16,126.13,22.63,13.82,84.58,51.78,146.87,90a220.79,220.79,0,0,1,106.15-112c-35.5-59.92-67.84-116.33-83.55-147C687.61,578.83,645,577.13,574.46,647.51Z"/><path class="cls-5" d="M429.32,506.7c-244.09,244.1-244.09,639.86,0,884s639.86,244.09,884,0,244.09-639.86,0-884S673.42,262.61,429.32,506.7ZM496,546.41c82.62-82.61,198.64-130.89,212-99.76,31.11,72.52,85.84,194.68,127.51,287A222.22,222.22,0,0,0,667.62,894.11c-92.76-37.33-215.94-87-289.36-117.71C347,763.32,406.41,636,496,546.41Zm212,909c-13.08,31.25-140.4-28.16-230-117.75-82.62-82.61-130.89-198.64-99.76-212,72.52-31.11,194.68-85.84,287-127.51A222.22,222.22,0,0,0,825.76,1166C788.43,1258.75,738.79,1381.93,708.05,1455.36Zm579.15-117.75c-89.59,89.59-216.91,149-230,117.75-30.74-73.43-80.38-196.61-117.71-289.37A222.22,222.22,0,0,0,1100,998.1c92.31,41.67,214.47,96.4,287,127.51C1418.09,1139,1369.82,1255,1287.2,1337.61ZM1387,776.4c-73.43,30.74-196.61,80.38-289.37,117.71A222.22,222.22,0,0,0,929.75,733.64c41.67-92.31,96.4-214.47,127.51-287,13.36-31.13,129.38,17.15,212,99.76C1358.85,636,1418.26,763.32,1387,776.4Z"/><path class="cls-6" d="M939.5,1166A222.22,222.22,0,0,0,1100,998.1c63.53,28.68,141.19,63.54,207.09,92.63a465.6,465.6,0,0,0-3.21-280c-66,27-143.13,58-206.21,83.42A222.22,222.22,0,0,0,929.75,733.64c29.5-65.35,65.51-145.59,95.09-212.66a465.49,465.49,0,0,0-289.28-11c30.41,69.13,68.82,154.74,100,223.7A222.22,222.22,0,0,0,667.62,894.11c-74.2-29.86-167.8-67.58-239.89-97.22a465.42,465.42,0,0,0-3.18,308.65c71.68-31.4,166-73.7,240.74-107.44A222.22,222.22,0,0,0,825.76,1166c-29.08,72.25-65.59,162.87-94.86,234.15a465.5,465.5,0,0,0,298.71-11.56C1001.22,1319.25,967,1234.38,939.5,1166Z"/><circle class="cls-2" cx="876.1" cy="958.26" r="108.73"/><path class="cls-3" d="M1387,1125.61c-12.12-5.2-25.66-11.07-40.18-17.42l-53.91,136.71a491.36,491.36,0,0,1,76.59-18.42C1396.26,1176,1405.08,1133.39,1387,1125.61Z"/><path class="cls-3" d="M1487.17,1055.55a623,623,0,0,1-53.36,166c50.49.28,79,10.91,79,10.91l91.87-152.79S1561.3,1062.59,1487.17,1055.55Z"/></svg>